
	<svg xmlns="http://www.w3.org/2000/svg" xmlns:xlink="http://www.w3.org/1999/xlink" version="1.1" width="200" height="200" viewBox="0 0 100 100">


		<defs>
			<g id="background">
<path fill="url(#background-gradient)" stroke="none" d=" M 90.75 23.05 Q 89.5 23.05 88.85 24.15 88.15 25.25 88.85 26.35 97.25 40.2 95.15 56.15 93.05 71.65 81.75 82.6 70.35 93.7 54.9 95.25 32.95 97.55 17.6 81.85 2.2 66.2 4.85 44.2 6.6 30.2 16.15 19.7 25.65 9.1 39.25 5.8 50.55 3 61.7 5.95 62.85 6.3 63.7 5.65 64.6 5 64.6 3.85 64.6 2.25 62.95 1.7 52.55 -1.1 41.6 0.65 25.55 3.3 14.4 14.85 3.1 26.25 0.65 42.4 -2.95 66.9 14 84.5 30.85 102.1 55.2 99.7 72.6 97.9 85.2 85.4 97.95 72.8 99.7 55.35 101.45 38.55 92.75 24.05 92.05 23.05 90.75 23.05 Z"/>
</g><mask id="mask">
<path fill="#FFFFFF" stroke="none" d=" M 82.2 82.15 Q 95.5 68.85 95.5 49.95 95.5 31.1 82.2 17.8 68.85 4.5 50 4.5 31.15 4.5 17.8 17.8 4.5 31.1 4.5 49.95 4.5 68.85 17.8 82.15 31.15 95.45 50 95.45 68.85 95.45 82.2 82.15 Z"/>
</mask>
			
	<linearGradient id="background-gradient" x1="0" y1="0" y2="1" x2="0" >
		<stop stop-color="#36b5b0" offset="0%"/>
		<stop stop-color="#36b5b0" offset="100%"/>
	</linearGradient>

			
			
			<g transform="scale(3.3333333333333335) translate(0 0.04999971389770508)" id="picture"><path d="M15.5 19c-.2 0-.3-.1-.4-.2l-6-8.5C9 10.2 9 10 9 9.8l.8-2.3H8c-1.8 0-2 .1-2 .5 0 .2.1.3.2.4.1.1.2.1.2.1.3 0 .5.1.6.4 0 .3-.1.5-.4.6-.4.1-.8-.1-1.1-.3C5.2 8.9 5 8.4 5 8c0-1.5 1.4-1.5 3-1.5h2.5c.2 0 .3.1.4.2.1.1.1.3.1.5l-.9 2.8 5.3 7.6L20 6.8c.1-.3.4-.4.7-.3.3.2.4.4.3.7l-5 11.5c-.1.2-.3.3-.5.3z M21.5 7.5h-4c-.3 0-.5-.2-.5-.5s.2-.5.5-.5h4c.3 0 .5.2.5.5s-.2.5-.5.5zm-6 11.5c-.3 0-.5-.2-.5-.5s.2-.5.5-.5l7.2-.4-3.9-6.1-8.9-.9-3.4 7.7c-.1.3-.4.4-.7.3-.3-.1-.4-.4-.3-.7l3.5-8c.1-.2.3-.3.5-.3l9.5 1c.2 0 .3.1.4.2l4.5 7c.1.1.1.3 0 .5s-.2.3-.4.3l-8 .4z M6 23.5c-3.3 0-6-2.7-6-6s2.7-6 6-6 6 2.7 6 6-2.7 6-6 6zm0-11c-2.8 0-5 2.2-5 5s2.2 5 5 5 5-2.2 5-5-2.2-5-5-5zm18 11c-3.3 0-6-2.7-6-6s2.7-6 6-6 6 2.7 6 6-2.7 6-6 6zm0-11c-2.8 0-5 2.2-5 5s2.2 5 5 5 5-2.2 5-5-2.2-5-5-5z"/></g>
			
	<linearGradient id="picture-gradient" x1="0" y1="0" y2="1" x2="0" >
		<stop stop-color="#36b5b0" offset="0%"/>
		<stop stop-color="#36b5b0" offset="100%"/>
	</linearGradient>

		</defs>

		

			<use xlink:href="#background" fill="url(#background-gradient)" />

		

			<g mask="url(#mask)">
				<g transform="
				        translate(
                                50 50
)
                            translate(0 0)  scale(0.7)  
                            translate(
                                -50 -50
)">
						<use xlink:href="#picture" fill="url(#picture-gradient)"  />
				</g>
			</g>

		



	</svg>
