
	<svg xmlns="http://www.w3.org/2000/svg" xmlns:xlink="http://www.w3.org/1999/xlink" version="1.1" width="200" height="200" viewBox="0 0 100 100">


		<defs>
			<g id="background">
<path fill="url(#background-gradient)" stroke="none" d=" M 90.75 23.05 Q 89.5 23.05 88.85 24.15 88.15 25.25 88.85 26.35 97.25 40.2 95.15 56.15 93.05 71.65 81.75 82.6 70.35 93.7 54.9 95.25 32.95 97.55 17.6 81.85 2.2 66.2 4.85 44.2 6.6 30.2 16.15 19.7 25.65 9.1 39.25 5.8 50.55 3 61.7 5.95 62.85 6.3 63.7 5.65 64.6 5 64.6 3.85 64.6 2.25 62.95 1.7 52.55 -1.1 41.6 0.65 25.55 3.3 14.4 14.85 3.1 26.25 0.65 42.4 -2.95 66.9 14 84.5 30.85 102.1 55.2 99.7 72.6 97.9 85.2 85.4 97.95 72.8 99.7 55.35 101.45 38.55 92.75 24.05 92.05 23.05 90.75 23.05 Z"/>
</g><mask id="mask">
<path fill="#FFFFFF" stroke="none" d=" M 82.2 82.15 Q 95.5 68.85 95.5 49.95 95.5 31.1 82.2 17.8 68.85 4.5 50 4.5 31.15 4.5 17.8 17.8 4.5 31.1 4.5 49.95 4.5 68.85 17.8 82.15 31.15 95.45 50 95.45 68.85 95.45 82.2 82.15 Z"/>
</mask>
			
	<linearGradient id="background-gradient" x1="0" y1="0" y2="1" x2="0" >
		<stop stop-color="#36b5b0" offset="0%"/>
		<stop stop-color="#36b5b0" offset="100%"/>
	</linearGradient>

			
			
			<g transform="scale(3.3333333333333335) translate(1 0)" id="picture"><path d="M22.9 24H5.1c-1.2 0-2.1.9-2.1 2v3c0 .6.4 1 1 1h20c.6 0 1-.4 1-1v-3c0-1.1-.9-2-2.1-2zm.1 4H5v-2h18v2zM5 22c0 .6.4 1 1 1h16c.6 0 1-.4 1-1v-8c0-5-4-9-9-9s-9 4-9 9v8zm2-8c0-3.9 3.1-7 7-7s7 3.1 7 7v7H7v-7z M14 8c-3.3 0-6 2.7-6 6 0 .3.2.5.5.5s.5-.2.5-.5c0-2.8 2.2-5 5-5 .3 0 .5-.2.5-.5S14.3 8 14 8zm0-4c.6 0 1-.4 1-1V1c0-.6-.4-1-1-1s-1 .4-1 1v2c0 .6.4 1 1 1zm13 9h-2c-.6 0-1 .4-1 1s.4 1 1 1h2c.6 0 1-.4 1-1s-.4-1-1-1zM4 14c0-.6-.4-1-1-1H1c-.6 0-1 .4-1 1s.4 1 1 1h2c.6 0 1-.4 1-1zm1.5-7.1c.2.2.5.3.7.3s.5-.1.7-.3c.4-.4.4-1 0-1.4L5.5 4.1c-.4-.4-1-.4-1.4 0s-.4 1 0 1.4l1.4 1.4zm16.3.3c.3 0 .5-.1.7-.3l1.4-1.4c.4-.4.4-1 0-1.4s-1-.4-1.4 0l-1.4 1.4c-.4.4-.4 1 0 1.4.2.2.4.3.7.3z"/></g>
			
	<linearGradient id="picture-gradient" x1="0" y1="0" y2="1" x2="0" >
		<stop stop-color="#36b5b0" offset="0%"/>
		<stop stop-color="#36b5b0" offset="100%"/>
	</linearGradient>

		</defs>

		

			<use xlink:href="#background" fill="url(#background-gradient)" />

		

			<g mask="url(#mask)">
				<g transform="
				        translate(
                                50 50
)
                            translate(0 0)  scale(0.7)  
                            translate(
                                -50 -50
)">
						<use xlink:href="#picture" fill="url(#picture-gradient)"  />
				</g>
			</g>

		



	</svg>
