
	<svg xmlns="http://www.w3.org/2000/svg" xmlns:xlink="http://www.w3.org/1999/xlink" version="1.1" width="200" height="200" viewBox="0 0 100 100">


		<defs>
			<g id="background">
<path fill="url(#background-gradient)" stroke="none" d=" M 90.75 23.05 Q 89.5 23.05 88.85 24.15 88.15 25.25 88.85 26.35 97.25 40.2 95.15 56.15 93.05 71.65 81.75 82.6 70.35 93.7 54.9 95.25 32.95 97.55 17.6 81.85 2.2 66.2 4.85 44.2 6.6 30.2 16.15 19.7 25.65 9.1 39.25 5.8 50.55 3 61.7 5.95 62.85 6.3 63.7 5.65 64.6 5 64.6 3.85 64.6 2.25 62.95 1.7 52.55 -1.1 41.6 0.65 25.55 3.3 14.4 14.85 3.1 26.25 0.65 42.4 -2.95 66.9 14 84.5 30.85 102.1 55.2 99.7 72.6 97.9 85.2 85.4 97.95 72.8 99.7 55.35 101.45 38.55 92.75 24.05 92.05 23.05 90.75 23.05 Z"/>
</g><mask id="mask">
<path fill="#FFFFFF" stroke="none" d=" M 82.2 82.15 Q 95.5 68.85 95.5 49.95 95.5 31.1 82.2 17.8 68.85 4.5 50 4.5 31.15 4.5 17.8 17.8 4.5 31.1 4.5 49.95 4.5 68.85 17.8 82.15 31.15 95.45 50 95.45 68.85 95.45 82.2 82.15 Z"/>
</mask>
			
	<linearGradient id="background-gradient" x1="0" y1="0" y2="1" x2="0" >
		<stop stop-color="#36b5b0" offset="0%"/>
		<stop stop-color="#36b5b0" offset="100%"/>
	</linearGradient>

			
			
			<g transform="scale(3.3333333333333335)" id="picture"><path d="M22 13c-1.7 0-3 1.3-3 3s1.3 3 3 3 3-1.3 3-3-1.3-3-3-3zm0 5c-1.1 0-2-.9-2-2s.9-2 2-2 2 .9 2 2-.9 2-2 2z M22 8c-4.4 0-8 3.6-8 7.9 0 1.9 1.4 5 4.1 9.3.7 1.1 1.4 2.1 1.9 2.8H5.4C4.1 28 3 26.9 3 25.5S4.1 23 5.4 23h2c2.4 0 4.4-2 4.4-4.5 0-2.3-1.7-4.2-3.9-4.4.3-.5.7-1 1.1-1.6 3-4.6 3-6.1 3-6.6C12 2.6 9.3 0 6 0S0 2.6 0 5.8c0 .5 0 2.1 3 6.6 1.1 1.7 2.2 3.1 2.2 3.1l.2.2.1.1c.2.2.4.2.5.2h1.4c1.3 0 2.4 1.1 2.4 2.5S8.7 21 7.4 21h-2C3 21 1 23 1 25.5S3 30 5.4 30H22c.2 0 .3 0 .4-.1 0 0 .1 0 .1-.1.1-.1.2-.1.2-.2.1-.1 1.5-2 3.1-4.4 2.7-4.2 4.1-7.4 4.1-9.3C30 11.6 26.4 8 22 8zM4.7 11.4C2.3 7.7 2 6.3 2 5.8 2 3.7 3.8 2 6 2s4 1.7 4 3.8c0 .4-.3 1.9-2.7 5.6-.5.7-1 1.4-1.3 1.9-.4-.5-.8-1.2-1.3-1.9zm19.5 12.7c-.8 1.3-1.6 2.4-2.2 3.2-.6-.8-1.4-1.9-2.2-3.2-3.3-5.1-3.8-7.3-3.8-8.2 0-3.3 2.7-5.9 6-5.9s6 2.7 6 5.9c0 .9-.5 3.1-3.8 8.2z M8 6c0-1.1-.9-2-2-2s-2 .9-2 2 .9 2 2 2 2-.9 2-2zM5 6c0-.6.4-1 1-1s1 .4 1 1-.4 1-1 1-1-.4-1-1z"/></g>
			
	<linearGradient id="picture-gradient" x1="0" y1="0" y2="1" x2="0" >
		<stop stop-color="#36b5b0" offset="0%"/>
		<stop stop-color="#36b5b0" offset="100%"/>
	</linearGradient>

		</defs>

		

			<use xlink:href="#background" fill="url(#background-gradient)" />

		

			<g mask="url(#mask)">
				<g transform="
				        translate(
                                50 50
)
                            translate(0 0)  scale(0.7)  
                            translate(
                                -50 -50
)">
						<use xlink:href="#picture" fill="url(#picture-gradient)"  />
				</g>
			</g>

		



	</svg>
